<mxfile host="Electron" agent="Mozilla/5.0 (Windows NT 10.0; Win64; x64) AppleWebKit/537.36 (KHTML, like Gecko) draw.io/26.0.4 Chrome/128.0.6613.186 Electron/32.2.5 Safari/537.36" version="26.0.4">
  <diagram name="Page-1" id="Z3C1NiTa7ygTj1chKMIx">
    <mxGraphModel dx="1098" dy="1180" grid="1" gridSize="10" guides="1" tooltips="1" connect="1" arrows="1" fold="1" page="1" pageScale="1" pageWidth="1200" pageHeight="1600" math="0" shadow="0">
      <root>
        <mxCell id="0" />
        <mxCell id="1" parent="0" />
        <mxCell id="u2kjIfs1mv_Wrb9bzfoM-34" style="edgeStyle=orthogonalEdgeStyle;rounded=0;orthogonalLoop=1;jettySize=auto;html=1;entryX=0.5;entryY=0;entryDx=0;entryDy=0;" parent="1" source="u2kjIfs1mv_Wrb9bzfoM-1" target="u2kjIfs1mv_Wrb9bzfoM-2" edge="1">
          <mxGeometry relative="1" as="geometry" />
        </mxCell>
        <mxCell id="u2kjIfs1mv_Wrb9bzfoM-1" value="Player Switches Ammo" style="rounded=1;whiteSpace=wrap;html=1;fillColor=#d5e8d4;strokeColor=#82b366;" parent="1" vertex="1">
          <mxGeometry x="360" y="160" width="160" height="40" as="geometry" />
        </mxCell>
        <mxCell id="u2kjIfs1mv_Wrb9bzfoM-27" style="edgeStyle=orthogonalEdgeStyle;rounded=0;orthogonalLoop=1;jettySize=auto;html=1;entryX=0;entryY=0.5;entryDx=0;entryDy=0;" parent="1" source="u2kjIfs1mv_Wrb9bzfoM-2" target="u2kjIfs1mv_Wrb9bzfoM-3" edge="1">
          <mxGeometry relative="1" as="geometry" />
        </mxCell>
        <mxCell id="u2kjIfs1mv_Wrb9bzfoM-75" value="No" style="edgeLabel;html=1;align=center;verticalAlign=middle;resizable=0;points=[];" parent="u2kjIfs1mv_Wrb9bzfoM-27" vertex="1" connectable="0">
          <mxGeometry x="-0.0059" y="1" relative="1" as="geometry">
            <mxPoint as="offset" />
          </mxGeometry>
        </mxCell>
        <mxCell id="u2kjIfs1mv_Wrb9bzfoM-29" style="edgeStyle=orthogonalEdgeStyle;rounded=0;orthogonalLoop=1;jettySize=auto;html=1;exitX=0;exitY=0.5;exitDx=0;exitDy=0;" parent="1" source="u2kjIfs1mv_Wrb9bzfoM-2" target="u2kjIfs1mv_Wrb9bzfoM-28" edge="1">
          <mxGeometry relative="1" as="geometry" />
        </mxCell>
        <mxCell id="u2kjIfs1mv_Wrb9bzfoM-76" value="Yes" style="edgeLabel;html=1;align=center;verticalAlign=middle;resizable=0;points=[];" parent="u2kjIfs1mv_Wrb9bzfoM-29" vertex="1" connectable="0">
          <mxGeometry x="-0.0529" y="-1" relative="1" as="geometry">
            <mxPoint as="offset" />
          </mxGeometry>
        </mxCell>
        <mxCell id="u2kjIfs1mv_Wrb9bzfoM-2" value="Is their&amp;nbsp;&lt;div&gt;weapon rechambered?&lt;div&gt;&lt;font color=&quot;#67ab9f&quot;&gt;&lt;i&gt;(has&amp;nbsp;&lt;/i&gt;&lt;font style=&quot;&quot; face=&quot;Lucida Console&quot;&gt;&lt;b&gt;dn_HasRechamber&lt;/b&gt;&lt;/font&gt;&lt;/font&gt;&lt;/div&gt;&lt;div&gt;&lt;font color=&quot;#67ab9f&quot;&gt;&lt;font style=&quot;&quot; face=&quot;Lucida Console&quot;&gt;&lt;b&gt;&lt;/b&gt;&lt;/font&gt;&lt;i&gt;keyword)&lt;/i&gt;&lt;/font&gt;&lt;/div&gt;&lt;/div&gt;" style="rhombus;whiteSpace=wrap;html=1;fillColor=#fff2cc;strokeColor=#d6b656;" parent="1" vertex="1">
          <mxGeometry x="360" y="240" width="160" height="120" as="geometry" />
        </mxCell>
        <mxCell id="u2kjIfs1mv_Wrb9bzfoM-30" style="edgeStyle=orthogonalEdgeStyle;rounded=0;orthogonalLoop=1;jettySize=auto;html=1;entryX=0.5;entryY=0;entryDx=0;entryDy=0;" parent="1" source="u2kjIfs1mv_Wrb9bzfoM-3" target="u2kjIfs1mv_Wrb9bzfoM-5" edge="1">
          <mxGeometry relative="1" as="geometry" />
        </mxCell>
        <mxCell id="u2kjIfs1mv_Wrb9bzfoM-3" value="Find the type list for the base ammo" style="rounded=0;whiteSpace=wrap;html=1;fillColor=#ffe6cc;strokeColor=#d79b00;" parent="1" vertex="1">
          <mxGeometry x="600" y="280" width="120" height="40" as="geometry" />
        </mxCell>
        <mxCell id="u2kjIfs1mv_Wrb9bzfoM-35" style="edgeStyle=orthogonalEdgeStyle;rounded=0;orthogonalLoop=1;jettySize=auto;html=1;entryX=0.5;entryY=0;entryDx=0;entryDy=0;exitX=1;exitY=0.5;exitDx=0;exitDy=0;" parent="1" source="u2kjIfs1mv_Wrb9bzfoM-13" target="u2kjIfs1mv_Wrb9bzfoM-32" edge="1">
          <mxGeometry relative="1" as="geometry">
            <Array as="points">
              <mxPoint x="860" y="460" />
              <mxPoint x="860" y="640" />
              <mxPoint x="140" y="640" />
            </Array>
          </mxGeometry>
        </mxCell>
        <mxCell id="u2kjIfs1mv_Wrb9bzfoM-36" style="edgeStyle=orthogonalEdgeStyle;rounded=0;orthogonalLoop=1;jettySize=auto;html=1;entryX=0.5;entryY=0;entryDx=0;entryDy=0;exitX=1;exitY=0.5;exitDx=0;exitDy=0;" parent="1" source="u2kjIfs1mv_Wrb9bzfoM-23" target="u2kjIfs1mv_Wrb9bzfoM-32" edge="1">
          <mxGeometry relative="1" as="geometry">
            <Array as="points">
              <mxPoint x="420" y="460" />
              <mxPoint x="420" y="640" />
              <mxPoint x="140" y="640" />
            </Array>
          </mxGeometry>
        </mxCell>
        <mxCell id="u2kjIfs1mv_Wrb9bzfoM-31" style="edgeStyle=orthogonalEdgeStyle;rounded=0;orthogonalLoop=1;jettySize=auto;html=1;" parent="1" source="u2kjIfs1mv_Wrb9bzfoM-28" target="u2kjIfs1mv_Wrb9bzfoM-17" edge="1">
          <mxGeometry relative="1" as="geometry" />
        </mxCell>
        <mxCell id="u2kjIfs1mv_Wrb9bzfoM-28" value="Find the type list for the rechamber" style="rounded=0;whiteSpace=wrap;html=1;fillColor=#ffe6cc;strokeColor=#d79b00;" parent="1" vertex="1">
          <mxGeometry x="160" y="280" width="120" height="40" as="geometry" />
        </mxCell>
        <mxCell id="u2kjIfs1mv_Wrb9bzfoM-39" value="" style="group" parent="1" vertex="1" connectable="0">
          <mxGeometry x="40" y="400" width="360" height="200" as="geometry" />
        </mxCell>
        <mxCell id="u2kjIfs1mv_Wrb9bzfoM-17" value="Rechamber Keyword List" style="rounded=0;whiteSpace=wrap;html=1;strokeWidth=2;fillColor=#dae8fc;strokeColor=#6c8ebf;" parent="u2kjIfs1mv_Wrb9bzfoM-39" vertex="1">
          <mxGeometry width="160" height="40" as="geometry" />
        </mxCell>
        <mxCell id="u2kjIfs1mv_Wrb9bzfoM-18" value="Type List for Rechamber" style="rounded=0;whiteSpace=wrap;html=1;strokeWidth=2;fillColor=#dae8fc;strokeColor=#6c8ebf;" parent="u2kjIfs1mv_Wrb9bzfoM-39" vertex="1">
          <mxGeometry x="160" width="200" height="40" as="geometry" />
        </mxCell>
        <mxCell id="u2kjIfs1mv_Wrb9bzfoM-19" value="&lt;font size=&quot;1&quot; color=&quot;#67ab9f&quot; face=&quot;Lucida Console&quot;&gt;dn_HasRechamber_10mm&lt;/font&gt;" style="rounded=0;whiteSpace=wrap;html=1;fillColor=#f5f5f5;strokeColor=#666666;fontColor=#333333;" parent="u2kjIfs1mv_Wrb9bzfoM-39" vertex="1">
          <mxGeometry y="40" width="160" height="40" as="geometry" />
        </mxCell>
        <mxCell id="u2kjIfs1mv_Wrb9bzfoM-20" value="&lt;span style=&quot;color: rgb(103, 171, 159); font-family: &amp;quot;Lucida Console&amp;quot;; font-size: x-small;&quot;&gt;dn_HasRechamber_44&lt;/span&gt;" style="rounded=0;whiteSpace=wrap;html=1;fillColor=#f5f5f5;strokeColor=#666666;fontColor=#333333;" parent="u2kjIfs1mv_Wrb9bzfoM-39" vertex="1">
          <mxGeometry y="80" width="160" height="40" as="geometry" />
        </mxCell>
        <mxCell id="u2kjIfs1mv_Wrb9bzfoM-21" value="&lt;span style=&quot;color: rgb(103, 171, 159); font-family: &amp;quot;Lucida Console&amp;quot;; font-size: x-small;&quot;&gt;dn_HasRechamber_Missile&lt;/span&gt;" style="rounded=0;whiteSpace=wrap;html=1;fillColor=#f5f5f5;strokeColor=#666666;fontColor=#333333;" parent="u2kjIfs1mv_Wrb9bzfoM-39" vertex="1">
          <mxGeometry y="120" width="160" height="40" as="geometry" />
        </mxCell>
        <mxCell id="u2kjIfs1mv_Wrb9bzfoM-22" value="&lt;font color=&quot;#67ab9f&quot; face=&quot;Lucida Console&quot;&gt;&lt;b&gt;...&lt;/b&gt;&lt;/font&gt;" style="rounded=0;whiteSpace=wrap;html=1;fillColor=#f5f5f5;strokeColor=#666666;fontColor=#333333;" parent="u2kjIfs1mv_Wrb9bzfoM-39" vertex="1">
          <mxGeometry y="160" width="160" height="40" as="geometry" />
        </mxCell>
        <mxCell id="u2kjIfs1mv_Wrb9bzfoM-23" value="&lt;font size=&quot;1&quot; color=&quot;#67ab9f&quot; face=&quot;Lucida Console&quot;&gt;_LOADS_FLST_Ammo10mm_LISTS&lt;/font&gt;" style="rounded=0;whiteSpace=wrap;html=1;fillColor=#f5f5f5;fontColor=#333333;strokeColor=#666666;" parent="u2kjIfs1mv_Wrb9bzfoM-39" vertex="1">
          <mxGeometry x="160" y="40" width="200" height="40" as="geometry" />
        </mxCell>
        <mxCell id="u2kjIfs1mv_Wrb9bzfoM-24" value="&lt;font size=&quot;1&quot; color=&quot;#67ab9f&quot; face=&quot;Lucida Console&quot;&gt;_LOADS_FLST_Ammo10mm_LISTS&lt;/font&gt;" style="rounded=0;whiteSpace=wrap;html=1;fillColor=#f5f5f5;fontColor=#333333;strokeColor=#666666;" parent="u2kjIfs1mv_Wrb9bzfoM-39" vertex="1">
          <mxGeometry x="160" y="80" width="200" height="40" as="geometry" />
        </mxCell>
        <mxCell id="u2kjIfs1mv_Wrb9bzfoM-25" value="&lt;font size=&quot;1&quot; color=&quot;#67ab9f&quot; face=&quot;Lucida Console&quot;&gt;_LOADS_FLST_Ammo10mm_LISTS&lt;/font&gt;" style="rounded=0;whiteSpace=wrap;html=1;fillColor=#f5f5f5;fontColor=#333333;strokeColor=#666666;" parent="u2kjIfs1mv_Wrb9bzfoM-39" vertex="1">
          <mxGeometry x="160" y="120" width="200" height="40" as="geometry" />
        </mxCell>
        <mxCell id="u2kjIfs1mv_Wrb9bzfoM-26" value="&lt;font size=&quot;1&quot; color=&quot;#67ab9f&quot; face=&quot;Lucida Console&quot;&gt;&lt;b style=&quot;&quot;&gt;...&lt;/b&gt;&lt;/font&gt;" style="rounded=0;whiteSpace=wrap;html=1;fillColor=#f5f5f5;fontColor=#333333;strokeColor=#666666;" parent="u2kjIfs1mv_Wrb9bzfoM-39" vertex="1">
          <mxGeometry x="160" y="160" width="200" height="40" as="geometry" />
        </mxCell>
        <mxCell id="u2kjIfs1mv_Wrb9bzfoM-40" value="" style="group;strokeWidth=0;" parent="1" vertex="1" connectable="0">
          <mxGeometry x="480" y="400" width="360" height="200" as="geometry" />
        </mxCell>
        <mxCell id="u2kjIfs1mv_Wrb9bzfoM-5" value="Base Ammo List" style="rounded=0;whiteSpace=wrap;html=1;strokeWidth=2;fillColor=#dae8fc;strokeColor=#6c8ebf;" parent="u2kjIfs1mv_Wrb9bzfoM-40" vertex="1">
          <mxGeometry width="160" height="40" as="geometry" />
        </mxCell>
        <mxCell id="u2kjIfs1mv_Wrb9bzfoM-6" value="&lt;div&gt;Type List for Base Ammo&lt;/div&gt;" style="rounded=0;whiteSpace=wrap;html=1;strokeWidth=2;fillColor=#dae8fc;strokeColor=#6c8ebf;" parent="u2kjIfs1mv_Wrb9bzfoM-40" vertex="1">
          <mxGeometry x="160" width="200" height="40" as="geometry" />
        </mxCell>
        <mxCell id="u2kjIfs1mv_Wrb9bzfoM-9" value="&lt;font color=&quot;#67ab9f&quot; face=&quot;Lucida Console&quot;&gt;Ammo10mm&lt;/font&gt;" style="rounded=0;whiteSpace=wrap;html=1;fillColor=#f5f5f5;fontColor=#333333;strokeColor=#666666;" parent="u2kjIfs1mv_Wrb9bzfoM-40" vertex="1">
          <mxGeometry y="40" width="160" height="40" as="geometry" />
        </mxCell>
        <mxCell id="u2kjIfs1mv_Wrb9bzfoM-10" value="&lt;font color=&quot;#67ab9f&quot; face=&quot;Lucida Console&quot;&gt;Ammo44&lt;/font&gt;" style="rounded=0;whiteSpace=wrap;html=1;fillColor=#f5f5f5;fontColor=#333333;strokeColor=#666666;" parent="u2kjIfs1mv_Wrb9bzfoM-40" vertex="1">
          <mxGeometry y="80" width="160" height="40" as="geometry" />
        </mxCell>
        <mxCell id="u2kjIfs1mv_Wrb9bzfoM-11" value="&lt;font color=&quot;#67ab9f&quot; face=&quot;Lucida Console&quot;&gt;AmmoMissile&lt;/font&gt;" style="rounded=0;whiteSpace=wrap;html=1;fillColor=#f5f5f5;fontColor=#333333;strokeColor=#666666;" parent="u2kjIfs1mv_Wrb9bzfoM-40" vertex="1">
          <mxGeometry y="120" width="160" height="40" as="geometry" />
        </mxCell>
        <mxCell id="u2kjIfs1mv_Wrb9bzfoM-12" value="&lt;font color=&quot;#67ab9f&quot; face=&quot;Lucida Console&quot;&gt;&lt;b&gt;...&lt;/b&gt;&lt;/font&gt;" style="rounded=0;whiteSpace=wrap;html=1;fillColor=#f5f5f5;fontColor=#333333;strokeColor=#666666;" parent="u2kjIfs1mv_Wrb9bzfoM-40" vertex="1">
          <mxGeometry y="160" width="160" height="40" as="geometry" />
        </mxCell>
        <mxCell id="u2kjIfs1mv_Wrb9bzfoM-13" value="&lt;font size=&quot;1&quot; color=&quot;#67ab9f&quot; face=&quot;Lucida Console&quot;&gt;_LOADS_FLST_Ammo10mm_LISTS&lt;/font&gt;" style="rounded=0;whiteSpace=wrap;html=1;fillColor=#f5f5f5;fontColor=#333333;strokeColor=#666666;" parent="u2kjIfs1mv_Wrb9bzfoM-40" vertex="1">
          <mxGeometry x="160" y="40" width="200" height="40" as="geometry" />
        </mxCell>
        <mxCell id="u2kjIfs1mv_Wrb9bzfoM-14" value="&lt;font size=&quot;1&quot; color=&quot;#67ab9f&quot; face=&quot;Lucida Console&quot;&gt;_LOADS_FLST_Ammo10mm_LISTS&lt;/font&gt;" style="rounded=0;whiteSpace=wrap;html=1;fillColor=#f5f5f5;fontColor=#333333;strokeColor=#666666;" parent="u2kjIfs1mv_Wrb9bzfoM-40" vertex="1">
          <mxGeometry x="160" y="80" width="200" height="40" as="geometry" />
        </mxCell>
        <mxCell id="u2kjIfs1mv_Wrb9bzfoM-15" value="&lt;font size=&quot;1&quot; color=&quot;#67ab9f&quot; face=&quot;Lucida Console&quot;&gt;_LOADS_FLST_Ammo10mm_LISTS&lt;/font&gt;" style="rounded=0;whiteSpace=wrap;html=1;fillColor=#f5f5f5;fontColor=#333333;strokeColor=#666666;" parent="u2kjIfs1mv_Wrb9bzfoM-40" vertex="1">
          <mxGeometry x="160" y="120" width="200" height="40" as="geometry" />
        </mxCell>
        <mxCell id="u2kjIfs1mv_Wrb9bzfoM-16" value="&lt;font size=&quot;1&quot; color=&quot;#67ab9f&quot; face=&quot;Lucida Console&quot;&gt;&lt;b style=&quot;&quot;&gt;...&lt;/b&gt;&lt;/font&gt;" style="rounded=0;whiteSpace=wrap;html=1;fillColor=#f5f5f5;fontColor=#333333;strokeColor=#666666;" parent="u2kjIfs1mv_Wrb9bzfoM-40" vertex="1">
          <mxGeometry x="160" y="160" width="200" height="40" as="geometry" />
        </mxCell>
        <mxCell id="u2kjIfs1mv_Wrb9bzfoM-41" value="" style="group" parent="1" vertex="1" connectable="0">
          <mxGeometry x="40" y="680" width="200" height="160" as="geometry" />
        </mxCell>
        <mxCell id="u2kjIfs1mv_Wrb9bzfoM-32" value="10mm Type Lists&lt;div&gt;&lt;font color=&quot;#67ab9f&quot; size=&quot;1&quot; face=&quot;Lucida Console&quot;&gt;&lt;b style=&quot;&quot;&gt;_LOADS_FLST_Ammmo10mm&lt;/b&gt;&lt;/font&gt;&lt;/div&gt;" style="rounded=0;whiteSpace=wrap;html=1;strokeWidth=2;fillColor=#dae8fc;strokeColor=#6c8ebf;" parent="u2kjIfs1mv_Wrb9bzfoM-41" vertex="1">
          <mxGeometry width="200" height="40" as="geometry" />
        </mxCell>
        <mxCell id="u2kjIfs1mv_Wrb9bzfoM-33" value="&lt;font size=&quot;1&quot; color=&quot;#67ab9f&quot; face=&quot;Lucida Console&quot;&gt;_LOADS_FLST_Ammo10mm_AMMO&lt;/font&gt;" style="rounded=0;whiteSpace=wrap;html=1;fillColor=#f5f5f5;fontColor=#333333;strokeColor=#666666;" parent="u2kjIfs1mv_Wrb9bzfoM-41" vertex="1">
          <mxGeometry y="40" width="200" height="40" as="geometry" />
        </mxCell>
        <mxCell id="u2kjIfs1mv_Wrb9bzfoM-37" value="&lt;font size=&quot;1&quot; color=&quot;#67ab9f&quot; face=&quot;Lucida Console&quot;&gt;_LOADS_FLST_Ammo10mm_KYWD&lt;/font&gt;" style="rounded=0;whiteSpace=wrap;html=1;fillColor=#f5f5f5;fontColor=#333333;strokeColor=#666666;" parent="u2kjIfs1mv_Wrb9bzfoM-41" vertex="1">
          <mxGeometry y="80" width="200" height="40" as="geometry" />
        </mxCell>
        <mxCell id="u2kjIfs1mv_Wrb9bzfoM-38" value="&lt;font size=&quot;1&quot; color=&quot;#67ab9f&quot; face=&quot;Lucida Console&quot;&gt;_LOADS_FLST_Ammo10mm_OMOD&lt;/font&gt;" style="rounded=0;whiteSpace=wrap;html=1;fillColor=#f5f5f5;fontColor=#333333;strokeColor=#666666;" parent="u2kjIfs1mv_Wrb9bzfoM-41" vertex="1">
          <mxGeometry y="120" width="200" height="40" as="geometry" />
        </mxCell>
        <mxCell id="u2kjIfs1mv_Wrb9bzfoM-90" style="edgeStyle=orthogonalEdgeStyle;rounded=0;orthogonalLoop=1;jettySize=auto;html=1;entryX=0.5;entryY=0;entryDx=0;entryDy=0;exitX=1;exitY=0.5;exitDx=0;exitDy=0;" parent="1" source="u2kjIfs1mv_Wrb9bzfoM-74" target="u2kjIfs1mv_Wrb9bzfoM-105" edge="1">
          <mxGeometry relative="1" as="geometry">
            <mxPoint x="380" y="1040" as="sourcePoint" />
            <Array as="points" />
          </mxGeometry>
        </mxCell>
        <mxCell id="u2kjIfs1mv_Wrb9bzfoM-92" value="Yes" style="edgeLabel;html=1;align=center;verticalAlign=middle;resizable=0;points=[];" parent="u2kjIfs1mv_Wrb9bzfoM-90" vertex="1" connectable="0">
          <mxGeometry x="-0.1647" y="-3" relative="1" as="geometry">
            <mxPoint x="3" y="-13" as="offset" />
          </mxGeometry>
        </mxCell>
        <mxCell id="u2kjIfs1mv_Wrb9bzfoM-95" style="edgeStyle=orthogonalEdgeStyle;rounded=0;orthogonalLoop=1;jettySize=auto;html=1;entryX=0.5;entryY=0;entryDx=0;entryDy=0;exitX=0;exitY=0.5;exitDx=0;exitDy=0;" parent="1" source="u2kjIfs1mv_Wrb9bzfoM-74" target="u2kjIfs1mv_Wrb9bzfoM-94" edge="1">
          <mxGeometry relative="1" as="geometry" />
        </mxCell>
        <mxCell id="u2kjIfs1mv_Wrb9bzfoM-96" value="No" style="edgeLabel;html=1;align=center;verticalAlign=middle;resizable=0;points=[];" parent="u2kjIfs1mv_Wrb9bzfoM-95" vertex="1" connectable="0">
          <mxGeometry x="-0.7229" relative="1" as="geometry">
            <mxPoint x="-6" as="offset" />
          </mxGeometry>
        </mxCell>
        <mxCell id="u2kjIfs1mv_Wrb9bzfoM-74" value="Is a type&amp;nbsp;&lt;div&gt;currently&lt;div&gt;&amp;nbsp;equipped?&lt;/div&gt;&lt;div&gt;&lt;i&gt;(has keyword from&amp;nbsp;&lt;/i&gt;&lt;/div&gt;&lt;div&gt;&amp;nbsp;&lt;b&gt;&lt;font color=&quot;#67ab9f&quot; face=&quot;Lucida Console&quot;&gt;_KYWD&amp;nbsp;&lt;/font&gt;&lt;/b&gt;&lt;i&gt;list)&lt;/i&gt;&lt;br&gt;&lt;/div&gt;&lt;/div&gt;" style="rhombus;whiteSpace=wrap;html=1;fillColor=#fff2cc;strokeColor=#d6b656;" parent="1" vertex="1">
          <mxGeometry x="360" y="840" width="160" height="120" as="geometry" />
        </mxCell>
        <mxCell id="u2kjIfs1mv_Wrb9bzfoM-87" style="edgeStyle=orthogonalEdgeStyle;rounded=0;orthogonalLoop=1;jettySize=auto;html=1;entryX=0.5;entryY=0;entryDx=0;entryDy=0;" parent="1" source="u2kjIfs1mv_Wrb9bzfoM-82" target="u2kjIfs1mv_Wrb9bzfoM-74" edge="1">
          <mxGeometry relative="1" as="geometry" />
        </mxCell>
        <mxCell id="u2kjIfs1mv_Wrb9bzfoM-82" value="Treat these lists as a table" style="rounded=0;whiteSpace=wrap;html=1;fillColor=#ffe6cc;strokeColor=#d79b00;" parent="1" vertex="1">
          <mxGeometry x="380" y="760" width="120" height="40" as="geometry" />
        </mxCell>
        <mxCell id="u2kjIfs1mv_Wrb9bzfoM-83" style="edgeStyle=orthogonalEdgeStyle;rounded=0;orthogonalLoop=1;jettySize=auto;html=1;entryX=0;entryY=0.5;entryDx=0;entryDy=0;" parent="1" source="u2kjIfs1mv_Wrb9bzfoM-33" target="u2kjIfs1mv_Wrb9bzfoM-82" edge="1">
          <mxGeometry relative="1" as="geometry" />
        </mxCell>
        <mxCell id="u2kjIfs1mv_Wrb9bzfoM-84" style="edgeStyle=orthogonalEdgeStyle;rounded=0;orthogonalLoop=1;jettySize=auto;html=1;entryX=0;entryY=0.5;entryDx=0;entryDy=0;" parent="1" source="u2kjIfs1mv_Wrb9bzfoM-37" target="u2kjIfs1mv_Wrb9bzfoM-82" edge="1">
          <mxGeometry relative="1" as="geometry" />
        </mxCell>
        <mxCell id="u2kjIfs1mv_Wrb9bzfoM-85" style="edgeStyle=orthogonalEdgeStyle;rounded=0;orthogonalLoop=1;jettySize=auto;html=1;entryX=0;entryY=0.5;entryDx=0;entryDy=0;" parent="1" source="u2kjIfs1mv_Wrb9bzfoM-38" target="u2kjIfs1mv_Wrb9bzfoM-82" edge="1">
          <mxGeometry relative="1" as="geometry" />
        </mxCell>
        <mxCell id="u2kjIfs1mv_Wrb9bzfoM-53" value="10mm Type Ammo&lt;div&gt;&lt;b style=&quot;color: rgb(103, 171, 159); font-family: &amp;quot;Lucida Console&amp;quot;; font-size: x-small;&quot;&gt;_LOADS_FLST_Ammmo10mm&lt;/b&gt;&lt;br&gt;&lt;/div&gt;" style="rounded=0;whiteSpace=wrap;html=1;strokeWidth=2;fillColor=#dae8fc;strokeColor=#6c8ebf;" parent="1" vertex="1">
          <mxGeometry x="540" y="680" width="160" height="40" as="geometry" />
        </mxCell>
        <mxCell id="u2kjIfs1mv_Wrb9bzfoM-54" value="10mm Type Keyword&lt;div&gt;&lt;b style=&quot;color: rgb(103, 171, 159); font-family: &amp;quot;Lucida Console&amp;quot;; font-size: x-small;&quot;&gt;_LOADS_FLST_Ammmo10mm&lt;/b&gt;&lt;br&gt;&lt;/div&gt;" style="rounded=0;whiteSpace=wrap;html=1;strokeWidth=2;fillColor=#dae8fc;strokeColor=#6c8ebf;" parent="1" vertex="1">
          <mxGeometry x="700" y="680" width="160" height="40" as="geometry" />
        </mxCell>
        <mxCell id="u2kjIfs1mv_Wrb9bzfoM-55" value="&lt;font color=&quot;#67ab9f&quot; face=&quot;Lucida Console&quot;&gt;Ammo10mm&lt;/font&gt;" style="rounded=0;whiteSpace=wrap;html=1;fillColor=#f5f5f5;fontColor=#333333;strokeColor=#666666;" parent="1" vertex="1">
          <mxGeometry x="540" y="720" width="160" height="40" as="geometry" />
        </mxCell>
        <mxCell id="u2kjIfs1mv_Wrb9bzfoM-56" value="&lt;font color=&quot;#67ab9f&quot; face=&quot;Lucida Console&quot;&gt;Ammo10mm_AP&lt;/font&gt;" style="rounded=0;whiteSpace=wrap;html=1;fillColor=#f5f5f5;fontColor=#333333;strokeColor=#666666;" parent="1" vertex="1">
          <mxGeometry x="540" y="760" width="160" height="40" as="geometry" />
        </mxCell>
        <mxCell id="u2kjIfs1mv_Wrb9bzfoM-57" value="&lt;font color=&quot;#67ab9f&quot; face=&quot;Lucida Console&quot;&gt;Ammo10mm_DU&lt;/font&gt;" style="rounded=0;whiteSpace=wrap;html=1;fillColor=#f5f5f5;fontColor=#333333;strokeColor=#666666;" parent="1" vertex="1">
          <mxGeometry x="540" y="800" width="160" height="40" as="geometry" />
        </mxCell>
        <mxCell id="u2kjIfs1mv_Wrb9bzfoM-58" value="&lt;font color=&quot;#67ab9f&quot; face=&quot;Lucida Console&quot;&gt;&lt;b&gt;...&lt;/b&gt;&lt;/font&gt;" style="rounded=0;whiteSpace=wrap;html=1;fillColor=#f5f5f5;fontColor=#333333;strokeColor=#666666;" parent="1" vertex="1">
          <mxGeometry x="540" y="840" width="160" height="40" as="geometry" />
        </mxCell>
        <mxCell id="u2kjIfs1mv_Wrb9bzfoM-59" value="&lt;font size=&quot;1&quot; color=&quot;#67ab9f&quot; face=&quot;Lucida Console&quot;&gt;_LOADS_KYWD_AmmoDefault&lt;/font&gt;" style="rounded=0;whiteSpace=wrap;html=1;fillColor=#f5f5f5;fontColor=#333333;strokeColor=#666666;" parent="1" vertex="1">
          <mxGeometry x="700" y="720" width="160" height="40" as="geometry" />
        </mxCell>
        <mxCell id="u2kjIfs1mv_Wrb9bzfoM-60" value="&lt;span style=&quot;color: rgb(103, 171, 159); font-family: &amp;quot;Lucida Console&amp;quot;; font-size: x-small;&quot;&gt;_LOADS_KYWD_Ammo10mm_AP&lt;/span&gt;" style="rounded=0;whiteSpace=wrap;html=1;fillColor=#f5f5f5;fontColor=#333333;strokeColor=#666666;" parent="1" vertex="1">
          <mxGeometry x="700" y="760" width="160" height="40" as="geometry" />
        </mxCell>
        <mxCell id="u2kjIfs1mv_Wrb9bzfoM-61" value="&lt;span style=&quot;color: rgb(103, 171, 159); font-family: &amp;quot;Lucida Console&amp;quot;; font-size: x-small;&quot;&gt;_LOADS_KYWD_Ammo10mm_DU&lt;/span&gt;" style="rounded=0;whiteSpace=wrap;html=1;fillColor=#f5f5f5;fontColor=#333333;strokeColor=#666666;" parent="1" vertex="1">
          <mxGeometry x="700" y="800" width="160" height="40" as="geometry" />
        </mxCell>
        <mxCell id="u2kjIfs1mv_Wrb9bzfoM-62" value="&lt;font size=&quot;1&quot; color=&quot;#67ab9f&quot; face=&quot;Lucida Console&quot;&gt;&lt;b style=&quot;&quot;&gt;...&lt;/b&gt;&lt;/font&gt;" style="rounded=0;whiteSpace=wrap;html=1;fillColor=#f5f5f5;fontColor=#333333;strokeColor=#666666;" parent="1" vertex="1">
          <mxGeometry x="700" y="840" width="160" height="40" as="geometry" />
        </mxCell>
        <mxCell id="u2kjIfs1mv_Wrb9bzfoM-63" value="10mm Type Object Modifier&lt;div&gt;&lt;b style=&quot;color: rgb(103, 171, 159); font-family: &amp;quot;Lucida Console&amp;quot;; font-size: x-small;&quot;&gt;_LOADS_FLST_Ammmo10mm&lt;/b&gt;&lt;br&gt;&lt;/div&gt;" style="rounded=0;whiteSpace=wrap;html=1;strokeWidth=2;fillColor=#dae8fc;strokeColor=#6c8ebf;" parent="1" vertex="1">
          <mxGeometry x="860" y="680" width="160" height="40" as="geometry" />
        </mxCell>
        <mxCell id="u2kjIfs1mv_Wrb9bzfoM-64" value="&lt;font size=&quot;1&quot; color=&quot;#67ab9f&quot; face=&quot;Lucida Console&quot;&gt;_LOADS_OMOD_AmmmoDefault&lt;/font&gt;" style="rounded=0;whiteSpace=wrap;html=1;fillColor=#f5f5f5;fontColor=#333333;strokeColor=#666666;" parent="1" vertex="1">
          <mxGeometry x="860" y="720" width="160" height="40" as="geometry" />
        </mxCell>
        <mxCell id="u2kjIfs1mv_Wrb9bzfoM-65" value="&lt;span style=&quot;color: rgb(103, 171, 159); font-family: &amp;quot;Lucida Console&amp;quot;; font-size: x-small;&quot;&gt;_LOADS_OMOD_Ammmo10mm_AP&lt;/span&gt;" style="rounded=0;whiteSpace=wrap;html=1;fillColor=#f5f5f5;fontColor=#333333;strokeColor=#666666;" parent="1" vertex="1">
          <mxGeometry x="860" y="760" width="160" height="40" as="geometry" />
        </mxCell>
        <mxCell id="u2kjIfs1mv_Wrb9bzfoM-66" value="&lt;span style=&quot;color: rgb(103, 171, 159); font-family: &amp;quot;Lucida Console&amp;quot;; font-size: x-small;&quot;&gt;_LOADS_OMOD_Ammmo10mm_DU&lt;/span&gt;" style="rounded=0;whiteSpace=wrap;html=1;fillColor=#f5f5f5;fontColor=#333333;strokeColor=#666666;" parent="1" vertex="1">
          <mxGeometry x="860" y="800" width="160" height="40" as="geometry" />
        </mxCell>
        <mxCell id="u2kjIfs1mv_Wrb9bzfoM-67" value="&lt;font size=&quot;1&quot; color=&quot;#67ab9f&quot; face=&quot;Lucida Console&quot;&gt;&lt;b style=&quot;&quot;&gt;...&lt;/b&gt;&lt;/font&gt;" style="rounded=0;whiteSpace=wrap;html=1;fillColor=#f5f5f5;fontColor=#333333;strokeColor=#666666;" parent="1" vertex="1">
          <mxGeometry x="860" y="840" width="160" height="40" as="geometry" />
        </mxCell>
        <mxCell id="u2kjIfs1mv_Wrb9bzfoM-91" style="edgeStyle=orthogonalEdgeStyle;rounded=0;orthogonalLoop=1;jettySize=auto;html=1;entryX=0.5;entryY=0;entryDx=0;entryDy=0;" parent="1" source="u2kjIfs1mv_Wrb9bzfoM-88" target="u2kjIfs1mv_Wrb9bzfoM-89" edge="1">
          <mxGeometry relative="1" as="geometry" />
        </mxCell>
        <mxCell id="u2kjIfs1mv_Wrb9bzfoM-88" value="Check the next type&lt;div&gt;&lt;i&gt;(the next row,&amp;nbsp;&lt;/i&gt;&lt;/div&gt;&lt;div&gt;&lt;i&gt;loop round&lt;/i&gt;&lt;i style=&quot;background-color: initial;&quot;&gt;&amp;nbsp;if we hit the the bottom)&lt;/i&gt;&lt;/div&gt;" style="rounded=0;whiteSpace=wrap;html=1;fillColor=#ffe6cc;strokeColor=#d79b00;" parent="1" vertex="1">
          <mxGeometry x="380" y="1040" width="120" height="80" as="geometry" />
        </mxCell>
        <mxCell id="u2kjIfs1mv_Wrb9bzfoM-98" style="edgeStyle=orthogonalEdgeStyle;rounded=0;orthogonalLoop=1;jettySize=auto;html=1;entryX=0.5;entryY=0;entryDx=0;entryDy=0;exitX=0.5;exitY=1;exitDx=0;exitDy=0;" parent="1" source="u2kjIfs1mv_Wrb9bzfoM-89" target="u2kjIfs1mv_Wrb9bzfoM-103" edge="1">
          <mxGeometry relative="1" as="geometry">
            <mxPoint x="380" y="1359.9999999999995" as="targetPoint" />
          </mxGeometry>
        </mxCell>
        <mxCell id="u2kjIfs1mv_Wrb9bzfoM-99" value="Yes" style="edgeLabel;html=1;align=center;verticalAlign=middle;resizable=0;points=[];" parent="u2kjIfs1mv_Wrb9bzfoM-98" vertex="1" connectable="0">
          <mxGeometry x="-0.0471" y="1" relative="1" as="geometry">
            <mxPoint x="-1" y="-7" as="offset" />
          </mxGeometry>
        </mxCell>
        <mxCell id="u2kjIfs1mv_Wrb9bzfoM-109" style="edgeStyle=orthogonalEdgeStyle;rounded=0;orthogonalLoop=1;jettySize=auto;html=1;entryX=0.5;entryY=0;entryDx=0;entryDy=0;exitX=0;exitY=0.5;exitDx=0;exitDy=0;" parent="1" source="u2kjIfs1mv_Wrb9bzfoM-89" target="u2kjIfs1mv_Wrb9bzfoM-108" edge="1">
          <mxGeometry relative="1" as="geometry" />
        </mxCell>
        <mxCell id="u2kjIfs1mv_Wrb9bzfoM-116" value="No and we&#39;re&amp;nbsp;&lt;div&gt;back to the start&lt;/div&gt;" style="edgeLabel;html=1;align=center;verticalAlign=middle;resizable=0;points=[];" parent="u2kjIfs1mv_Wrb9bzfoM-109" vertex="1" connectable="0">
          <mxGeometry x="0.24" y="-2" relative="1" as="geometry">
            <mxPoint x="62" y="-17" as="offset" />
          </mxGeometry>
        </mxCell>
        <mxCell id="u2kjIfs1mv_Wrb9bzfoM-114" style="edgeStyle=orthogonalEdgeStyle;rounded=0;orthogonalLoop=1;jettySize=auto;html=1;entryX=1;entryY=0.5;entryDx=0;entryDy=0;exitX=1;exitY=0.5;exitDx=0;exitDy=0;" parent="1" source="u2kjIfs1mv_Wrb9bzfoM-89" target="u2kjIfs1mv_Wrb9bzfoM-88" edge="1">
          <mxGeometry relative="1" as="geometry">
            <Array as="points">
              <mxPoint x="540" y="1220" />
              <mxPoint x="540" y="1080" />
            </Array>
          </mxGeometry>
        </mxCell>
        <mxCell id="u2kjIfs1mv_Wrb9bzfoM-115" value="No" style="edgeLabel;html=1;align=center;verticalAlign=middle;resizable=0;points=[];" parent="u2kjIfs1mv_Wrb9bzfoM-114" vertex="1" connectable="0">
          <mxGeometry x="-0.8611" y="1" relative="1" as="geometry">
            <mxPoint x="6" y="1" as="offset" />
          </mxGeometry>
        </mxCell>
        <mxCell id="u2kjIfs1mv_Wrb9bzfoM-89" value="Do they&lt;div&gt;&lt;span style=&quot;background-color: initial;&quot;&gt;have&amp;nbsp;&lt;/span&gt;&lt;span style=&quot;background-color: initial;&quot;&gt;ammo for it?&lt;/span&gt;&lt;div&gt;&lt;div&gt;&lt;div&gt;&lt;i&gt;(have ammo from that&amp;nbsp;&lt;/i&gt;&lt;/div&gt;&lt;div&gt;&lt;i&gt;row in the&amp;nbsp;&lt;/i&gt;&lt;span style=&quot;background-color: initial;&quot;&gt;&amp;nbsp;&lt;/span&gt;&lt;b style=&quot;background-color: initial;&quot;&gt;&lt;font color=&quot;#67ab9f&quot; face=&quot;Lucida Console&quot;&gt;_AMMO&lt;/font&gt;&lt;/b&gt;&lt;/div&gt;&lt;div&gt;&lt;b style=&quot;background-color: initial;&quot;&gt;&lt;font color=&quot;#67ab9f&quot; face=&quot;Lucida Console&quot;&gt;&amp;nbsp;&lt;/font&gt;&lt;/b&gt;&lt;i style=&quot;background-color: initial;&quot;&gt;list)&lt;/i&gt;&lt;/div&gt;&lt;/div&gt;&lt;/div&gt;&lt;/div&gt;" style="rhombus;whiteSpace=wrap;html=1;fillColor=#fff2cc;strokeColor=#d6b656;" parent="1" vertex="1">
          <mxGeometry x="360" y="1160" width="160" height="120" as="geometry" />
        </mxCell>
        <mxCell id="u2kjIfs1mv_Wrb9bzfoM-113" style="edgeStyle=orthogonalEdgeStyle;rounded=0;orthogonalLoop=1;jettySize=auto;html=1;entryX=0.5;entryY=0;entryDx=0;entryDy=0;" parent="1" source="u2kjIfs1mv_Wrb9bzfoM-94" target="u2kjIfs1mv_Wrb9bzfoM-88" edge="1">
          <mxGeometry relative="1" as="geometry" />
        </mxCell>
        <mxCell id="u2kjIfs1mv_Wrb9bzfoM-94" value="Start at the default&amp;nbsp;&lt;div&gt;&lt;i&gt;(the first row)&lt;/i&gt;&lt;/div&gt;" style="rounded=0;whiteSpace=wrap;html=1;fillColor=#ffe6cc;strokeColor=#d79b00;" parent="1" vertex="1">
          <mxGeometry x="280" y="960" width="120" height="40" as="geometry" />
        </mxCell>
        <mxCell id="u2kjIfs1mv_Wrb9bzfoM-103" value="Equip that ammo.&lt;div&gt;&lt;i&gt;(the Object Modifier from the same row in the&amp;nbsp;&lt;/i&gt;&lt;b&gt;&lt;font color=&quot;#67ab9f&quot;&gt;_OMOD&amp;nbsp;&lt;/font&gt;&lt;/b&gt;&lt;i&gt;list)&lt;/i&gt;&lt;/div&gt;" style="rounded=1;whiteSpace=wrap;html=1;fillColor=#d5e8d4;strokeColor=#82b366;" parent="1" vertex="1">
          <mxGeometry x="360" y="1320" width="160" height="80" as="geometry" />
        </mxCell>
        <mxCell id="u2kjIfs1mv_Wrb9bzfoM-106" style="edgeStyle=orthogonalEdgeStyle;rounded=0;orthogonalLoop=1;jettySize=auto;html=1;entryX=0.5;entryY=0;entryDx=0;entryDy=0;" parent="1" source="u2kjIfs1mv_Wrb9bzfoM-105" target="u2kjIfs1mv_Wrb9bzfoM-88" edge="1">
          <mxGeometry relative="1" as="geometry" />
        </mxCell>
        <mxCell id="u2kjIfs1mv_Wrb9bzfoM-105" value="Starting from there&lt;div&gt;&lt;i&gt;(on that &lt;/i&gt;&lt;b style=&quot;&quot;&gt;&lt;font style=&quot;&quot; color=&quot;#67ab9f&quot; face=&quot;Lucida Console&quot;&gt;KYWD&lt;/font&gt;&lt;/b&gt;&lt;i&gt;&#39;s row)&lt;/i&gt;&lt;/div&gt;" style="rounded=0;whiteSpace=wrap;html=1;fillColor=#ffe6cc;strokeColor=#d79b00;" parent="1" vertex="1">
          <mxGeometry x="480" y="960" width="120" height="40" as="geometry" />
        </mxCell>
        <mxCell id="u2kjIfs1mv_Wrb9bzfoM-108" value="They&#39;re out of ammo!&amp;nbsp;&lt;div&gt;Show a warning message.&lt;/div&gt;" style="rounded=1;whiteSpace=wrap;html=1;fillColor=#f8cecc;strokeColor=#b85450;" parent="1" vertex="1">
          <mxGeometry x="160" y="1320" width="160" height="80" as="geometry" />
        </mxCell>
      </root>
    </mxGraphModel>
  </diagram>
</mxfile>
